# xmcd
#
# Track frame offsets:
#	150
#	22769
#	40719
#	56842
#	73146
#	89557
#	112065
#	129329
#	145220
#	168245
#	192320
#	215652
#	232004
#	262582
#	286853
#	303564
#
# Disc length: 4501
#
# Revision: 2
# Processed by: cddbd v1.5.2PL0 Copyright (c) Steve Scherf et al.
# Submitted via: audiograbber 1.82.02
# Normalized: r1:DSETVAR2
#
DISCID=e7119310
DTITLE=Various Artist - Disco Hits Vol.1
DYEAR=1900
DGENRE=Pop
TTITLE0=Tony Esposito - Kalimba De Luna
TTITLE1=Boney M - Happy Song
TTITLE2=Bananarama - Venus
TTITLE3=Sabrina - My Chico
TTITLE4=Arabesque - Midnight Danger
TTITLE5=Scotch - Plus Plus
TTITLE6=Mauro - Buona Sera Ciao...
TTITLE7=Chilly - We Are The Popkings
TTITLE8=Steve Miller Band - Abracadabra
TTITLE9=Ken Laszlo - 1-2-3-4-5-6-7-8
TTITLE10=Radiorama - Yeti
TTITLE11=Samantha Fox - Touch Me (I Want Your Body)
TTITLE12=Donna Summer - Hot Stuff
TTITLE13=Magazine 60 - Girl of Lucifer
TTITLE14=Gina T. - Tokyo By Night
TTITLE15=Zhi-Vago - Little Rusian
EXTD=
EXTT0=
EXTT1=
EXTT2=
EXTT3=
EXTT4=
EXTT5=
EXTT6=
EXTT7=
EXTT8=
EXTT9=
EXTT10=
EXTT11=
EXTT12=
EXTT13=
EXTT14=
EXTT15=
PLAYORDER=
